<svg width="48" height="48" viewBox="0 0 48 48" fill="none" xmlns="http://www.w3.org/2000/svg" aria-label="Feather of Maat">
  <defs><linearGradient id="m-ftr" x1="23" y1="8" x2="22" y2="42" gradientUnits="userSpaceOnUse">
    <stop offset="0" stop-color="#F6D785"/><stop offset="1" stop-color="#C58F23"/></linearGradient></defs>
  <!-- shaft -->
  <path d="M24.5 8 Q 22 24, 22 41.5" stroke="url(#m-ftr)" stroke-width="1.5" stroke-linecap="round" fill="none"/>
  <!-- barbs sweeping upward — a soft ostrich plume -->
  <g stroke="url(#m-ftr)" stroke-width="1.15" stroke-linecap="round" fill="none">
    <path d="M24.1 11 Q 26 9.8, 27.4 9"/><path d="M23.7 14.5 Q 26.5 13, 28.6 11.8"/><path d="M23.3 18 Q 26.8 16.4, 29.4 14.8"/><path d="M22.9 21.8 Q 26.6 20.4, 29.4 18.8"/><path d="M22.6 25.6 Q 26 24.4, 28.6 22.8"/><path d="M22.3 29.4 Q 25.4 28.4, 27.6 26.8"/><path d="M22.1 33.2 Q 24.6 32.4, 26.4 31"/><path d="M22 37 Q 24 36.4, 25.4 35.2"/>
    <path d="M24.1 11 Q 22.2 9.8, 20.8 9"/><path d="M23.7 14.5 Q 20.9 13, 18.8 11.8"/><path d="M23.3 18 Q 19.8 16.4, 17.2 14.8"/><path d="M22.9 21.8 Q 19.2 20.4, 16.4 18.8"/><path d="M22.6 25.6 Q 19.2 24.4, 16.6 22.8"/><path d="M22.3 29.4 Q 19.2 28.4, 17 26.8"/><path d="M22.1 33.2 Q 19.6 32.4, 17.8 31"/><path d="M22 37 Q 20 36.4, 18.6 35.2"/>
  </g>
  <circle cx="22" cy="41.2" r="1.5" fill="#9D7BFF"/>
</svg>
