<svg width="16" height="48" viewBox="0 0 16 48" fill="none" xmlns="http://www.w3.org/2000/svg" aria-label="Kheker frieze unit">
  <defs><linearGradient id="m-khk" x1="8" y1="4" x2="8" y2="44" gradientUnits="userSpaceOnUse">
    <stop offset="0" stop-color="#F6D785"/><stop offset="1" stop-color="#C58F23"/></linearGradient></defs>
  <path d="M8 20 L8 40" stroke="url(#m-khk)" stroke-width="1.4" stroke-linecap="round"/>
  <path d="M8 18 Q 4 13, 3 8 Q 5.5 9, 6.5 14 Q 7.5 18, 8 20" stroke="url(#m-khk)" stroke-width="1.3" stroke-linecap="round" fill="none"/>
  <path d="M8 16 Q 8 10, 8 5" stroke="url(#m-khk)" stroke-width="1.4" stroke-linecap="round"/>
  <path d="M6 7 Q 8 5, 10 7" stroke="url(#m-khk)" stroke-width="1.3" stroke-linecap="round" fill="none"/>
  <path d="M8 18 Q 12 13, 13 8 Q 10.5 9, 9.5 14 Q 8.5 18, 8 20" stroke="url(#m-khk)" stroke-width="1.3" stroke-linecap="round" fill="none"/>
  <path d="M5.5 20 L10.5 20" stroke="url(#m-khk)" stroke-width="1.7" stroke-linecap="round"/>
  <path d="M6 21.5 L10 21.5" stroke="#E8B23C" stroke-opacity="0.4" stroke-width="0.8"/>
  <path d="M2 40 L14 40" stroke="url(#m-khk)" stroke-width="1.5" stroke-linecap="round"/>
</svg>
