<svg width="64" height="64" viewBox="0 0 64 64" fill="none" xmlns="http://www.w3.org/2000/svg" aria-label="MaatWork">
  <defs>
    <linearGradient id="gl-ring" x1="32" y1="6" x2="32" y2="54" gradientUnits="userSpaceOnUse">
      <stop offset="0" stop-color="#F8DC8C"/><stop offset="0.52" stop-color="#E8B23C"/><stop offset="1" stop-color="#A0701A"/>
    </linearGradient>
    <linearGradient id="gl-pyr" x1="32" y1="23" x2="32" y2="40" gradientUnits="userSpaceOnUse">
      <stop offset="0" stop-color="#F6D785"/><stop offset="1" stop-color="#C58F23"/>
    </linearGradient>
    <radialGradient id="gl-sun" cx="50%" cy="50%" r="50%">
      <stop offset="0" stop-color="#FFF1C8"/><stop offset="1" stop-color="#EFC65E"/>
    </radialGradient>
    <linearGradient id="gl-cap" x1="32" y1="19" x2="32" y2="24.5" gradientUnits="userSpaceOnUse">
      <stop offset="0" stop-color="#CDBCFF"/><stop offset="1" stop-color="#9D7BFF"/>
    </linearGradient>
  </defs>
  <circle cx="32" cy="32" r="20.8" fill="none" stroke="#E8B23C" stroke-opacity="0.1" stroke-width="0.6"/>
  <circle cx="32" cy="32" r="19.6" fill="none" stroke="url(#gl-ring)" stroke-width="1.3"/>
  <circle cx="32" cy="32" r="16.7" fill="none" stroke="#E8B23C" stroke-opacity="0.16" stroke-width="0.6"/>
  <circle cx="51.6" cy="32" r="0.65" fill="#E8B23C" fill-opacity="0.5"/>
  <circle cx="12.4" cy="32" r="0.65" fill="#E8B23C" fill-opacity="0.5"/>
  <!-- sun -->
  <circle cx="32" cy="11.12" r="2.56" fill="none" stroke="#EFC65E" stroke-opacity="0.28" stroke-width="0.5"/>
  <circle cx="32" cy="11.12" r="1.6" fill="url(#gl-sun)"/>
  <circle cx="31.44" cy="10.56" r="0.44" fill="#FFFCF2"/>
  <g stroke="#F2CE6A" stroke-linecap="round">
    <path d="M32 9.12 L32 6.56" stroke-width="0.65"/>
    <path d="M32.69 9.24 L33.15 7.76" stroke-width="0.55"/><path d="M31.31 9.24 L30.85 7.76" stroke-width="0.55"/>
    <path d="M33.29 9.59 L34.88 7.64" stroke-width="0.65"/><path d="M30.71 9.59 L29.12 7.64" stroke-width="0.65"/>
    <path d="M33.74 10.12 L34.99 9.36" stroke-width="0.55"/><path d="M30.26 10.12 L29.01 9.36" stroke-width="0.55"/>
    <path d="M33.97 10.78 L36.4 10.34" stroke-width="0.65"/><path d="M30.03 10.78 L27.6 10.34" stroke-width="0.65"/>
  </g>
  <!-- pyramid -->
  <path d="M29.2 24.64 L22.4 39.6 L41.6 39.6 L34.8 24.64 Z" fill="none" stroke="url(#gl-pyr)" stroke-width="1.5" stroke-linejoin="round"/>
  <path d="M28 26.8 L36 26.8" stroke="#E8B23C" stroke-opacity="0.3" stroke-width="0.5"/>
  <path d="M23.2 36.8 L40.8 36.8" stroke="#E8B23C" stroke-opacity="0.32" stroke-width="0.55"/>
  <path d="M22.4 39.6 L41.6 39.6" stroke="#E8B23C" stroke-opacity="0.3" stroke-width="0.7" stroke-linecap="round"/>
  <!-- eye -->
  <path d="M27.68 31.6 Q32 28.8 36.32 31.6 Q32 34.4 27.68 31.6 Z" fill="#100B1C" stroke="url(#gl-pyr)" stroke-width="0.85" stroke-linejoin="round"/>
  <circle cx="32" cy="31.6" r="1.64" fill="none" stroke="#E8B23C" stroke-width="0.65"/>
  <circle cx="32" cy="31.6" r="0.84" fill="#9D7BFF"/>
  <circle cx="31.48" cy="31.08" r="0.32" fill="#F8DC8C"/>
  <!-- capstone -->
  <path d="M32 19.6 L34.88 24.32 L29.12 24.32 Z" fill="url(#gl-cap)" stroke="#CDBCFF" stroke-width="1" stroke-linejoin="round" stroke-opacity="0.9"/>
</svg>
