<svg width="80" height="80" viewBox="0 0 80 80" xmlns="http://www.w3.org/2000/svg" aria-label="MaatWork">
  <path fill="#000" d="M40 7.8c2.6 0 4.8 2.1 4.8 4.8 0 2.6-2.1 4.8-4.8 4.8s-4.8-2.1-4.8-4.8c0-2.7 2.2-4.8 4.8-4.8Zm0 12.8c13.5 0 24.5 11 24.5 24.5s-11 24.5-24.5 24.5-24.5-11-24.5-24.5 11-24.5 24.5-24.5Zm0 4.2c-11.2 0-20.3 9.1-20.3 20.3S28.8 65.4 40 65.4s20.3-9.1 20.3-20.3S51.2 24.8 40 24.8Zm-3.5 11.5h7L55 57H25l11.5-20.7Zm3.5 7.3c-3.4 0-6.6 1.7-8.9 4.7 2.3 3 5.5 4.7 8.9 4.7s6.6-1.7 8.9-4.7c-2.3-3-5.5-4.7-8.9-4.7Zm0 3.1a1.6 1.6 0 1 1 0 3.2 1.6 1.6 0 0 1 0-3.2Zm0-17.5 5.2 6.9H34.8l5.2-6.9Z"/>
</svg>
